<svg xmlns="http://www.w3.org/2000/svg" width="200" height="200" fill="none" viewBox="0 0 24 24" version="1.1" xmlns:xlink="http://www.w3.org/1999/xlink" xmlns:svgjs="http://svgjs.dev/svgjs"><path fill="url(&quot;#SvgjsLinearGradient1418&quot;)" fill-rule="evenodd" d="M3 5a2 2 0 1 1 4 0 2 2 0 0 1-4 0zm7 0a2 2 0 1 1 4 0 2 2 0 0 1-4 0zm7 0a2 2 0 1 1 4 0 2 2 0 0 1-4 0zM3 12a2 2 0 1 1 4 0 2 2 0 0 1-4 0zm7 0a2 2 0 1 1 4 0 2 2 0 0 1-4 0zm7 0a2 2 0 1 1 4 0 2 2 0 0 1-4 0zM3 19a2 2 0 1 1 4 0 2 2 0 0 1-4 0zm7 0a2 2 0 1 1 4 0 2 2 0 0 1-4 0zm7 0a2 2 0 1 1 4 0 2 2 0 0 1-4 0z" clip-rule="evenodd"></path><defs><linearGradient gradientTransform="rotate(0 0.5 0.5)" id="SvgjsLinearGradient1418"><stop stop-opacity=" 1" stop-color="rgba(234, 105, 157)" offset="0"></stop><stop stop-opacity=" 1" stop-color="rgba(248, 204, 231)" offset="0.48"></stop><stop stop-opacity=" 1" stop-color="rgba(231, 99, 140)" offset="1"></stop></linearGradient></defs></svg>